# xmcd
#
# Track frame offsets:
#	150
#	10288
#	20323
#	31961
#	40721
#	50788
#	62011
#	70813
#	82683
#	91668
#	105838
#	117316
#	134171
#	142046
#	162106
#
# Disc length: 2281 seconds
#
# Revision: 1
# Processed by: cddbd v1.5.2PL0 Copyright (c) Steve Scherf et al.
# Submitted via: audiograbber 1.83.01
#
DISCID=bb08e70f
DTITLE=Bonkers - Mystic Melodies
DYEAR=1998
DGENRE=Psychobilly
TTITLE0=Devil's Chains
TTITLE1=Appetite 4 Flesh
TTITLE2=Beast Boy
TTITLE3=Paedophile Party
TTITLE4=Carnivore
TTITLE5=Hunchback
TTITLE6=Panic
TTITLE7=Sick of 'em
TTITLE8=Psychocave
TTITLE9=Nuclear Storm
TTITLE10=Override
TTITLE11=Hophead Baby
TTITLE12=Let's start to kill
TTITLE13=Let's fight
TTITLE14=128 Special
EXTD=
EXTT0=
EXTT1=
EXTT2=
EXTT3=
EXTT4=
EXTT5=
EXTT6=
EXTT7=
EXTT8=
EXTT9=
EXTT10=
EXTT11=
EXTT12=
EXTT13=
EXTT14=
PLAYORDER=
